<?xml version="1.0" encoding="iso-8859-1"?>
<!-- Generator: Adobe Illustrator 19.0.0, SVG Export Plug-In . SVG Version: 6.00 Build 0)  -->
<svg version="1.1" id="Capa_1" xmlns="http://www.w3.org/2000/svg" xmlns:xlink="http://www.w3.org/1999/xlink" x="0px" y="0px"
	 viewBox="0 0 469.333 469.333" style="enable-background:new 0 0 469.333 469.333;" xml:space="preserve">
<g>
	<g>
		<path d="M414.167,185.76L304.917,76.514c-7.938-7.948-18.938-12.5-30.167-12.5h-40.083V32.015c0-17.645-14.354-31.999-32-31.999
			L117.333,0c-17.646,0-32,14.354-32,31.999v31.999c-23.521,0-42.667,19.135-42.667,42.665v319.989
			c0,23.53,19.146,42.665,42.667,42.665L384,469.333c23.521,0,42.667-19.135,42.667-42.665V215.926
			C426.667,204.697,422.104,193.697,414.167,185.76z M202.667,384.008c-29.417,0-53.333-23.927-53.333-53.333
			c0-26.792,38.313-64.458,46-71.74c4.125-3.896,10.542-3.896,14.667,0c7.688,7.281,46,44.948,46,71.74
			C256,360.081,232.083,384.008,202.667,384.008z M363.958,257.3c-6.042,6.042-14.083,9.375-22.625,9.375
			s-16.583-3.333-22.625-9.375l-85.333-85.333c-12.479-12.479-12.479-32.771,0-45.25c12.458-12.479,32.792-12.479,45.25,0
			l85.333,85.333C376.438,224.529,376.438,244.821,363.958,257.3z"/>
	</g>
</g>
<g>
</g>
<g>
</g>
<g>
</g>
<g>
</g>
<g>
</g>
<g>
</g>
<g>
</g>
<g>
</g>
<g>
</g>
<g>
</g>
<g>
</g>
<g>
</g>
<g>
</g>
<g>
</g>
<g>
</g>
</svg>
