<svg id="Capa_1" enable-background="new 0 0 512 512" height="512" viewBox="0 0 512 512" width="512" xmlns="http://www.w3.org/2000/svg"><g><g><g><g><g><g><g><g><g><g><circle cx="256" cy="256" fill="#a3d4ff" r="256"/></g></g></g></g></g></g></g></g></g></g><path d="m302.776 117.02-18.231 9.313-53.532-53.533-126.233 126.232 51.412 51.412-7.192 20.352 87.102 87.102-5.901 6.551 38.397 38.397-4.204 17.094 77.348 77.348c79.984-28.424 141.657-95.49 162.561-178.74z" fill="#65b1fc"/><g><path d="m322.252 199.033v-34.993h-19.557c-2.359-12.091-7.115-23.324-13.754-33.185l13.834-13.834-24.744-24.744-13.834 13.834c-9.861-6.639-21.094-11.395-33.185-13.754v-19.557h-34.992v19.557c-12.091 2.358-23.324 7.115-33.185 13.754l-13.835-13.835-24.744 24.744 13.834 13.834c-6.639 9.861-11.395 21.094-13.754 33.185h-19.556v34.993h19.557c2.359 12.091 7.115 23.324 13.754 33.185l-13.834 13.834 24.743 24.745 13.834-13.834c9.861 6.639 21.094 11.395 33.185 13.754v19.557h34.993v-19.557c12.091-2.358 23.325-7.115 33.185-13.754l13.834 13.834 24.744-24.744-13.834-13.834c6.639-9.861 11.395-21.094 13.753-33.185zm-108.736 33.597c-28.218 0-51.094-22.876-51.094-51.094s22.876-51.094 51.094-51.094c28.219 0 51.094 22.876 51.094 51.094 0 28.219-22.875 51.094-51.094 51.094z" fill="#414952"/></g><g><path d="m322.252 199.033v-34.993h-19.557c-2.359-12.091-7.115-23.324-13.754-33.185l13.834-13.834-24.744-24.744-13.834 13.834c-9.861-6.639-21.094-11.395-33.185-13.754v-19.557h-17.679v57.647c.061 0 .122-.005.183-.005 28.218 0 51.094 22.876 51.094 51.094 0 28.219-22.876 51.094-51.094 51.094-.061 0-.122-.004-.183-.005v57.646h17.679v-19.557c12.091-2.358 23.325-7.115 33.185-13.753l13.834 13.834 24.744-24.744-13.834-13.834c6.639-9.861 11.395-21.094 13.753-33.185h19.558z" fill="#23272b"/></g><g><path d="m398.363 364.449v-27.059h-15.123c-1.824-9.349-5.501-18.036-10.635-25.661l10.697-10.697-19.133-19.133-10.697 10.697c-7.625-5.134-16.311-8.811-25.661-10.635v-15.122h-27.059v15.122c-9.349 1.824-18.036 5.501-25.661 10.635l-10.697-10.697-19.133 19.133 10.697 10.697c-5.134 7.625-8.811 16.311-10.635 25.661h-15.122v27.059h15.122c1.824 9.349 5.501 18.036 10.635 25.661l-10.697 10.698 19.133 19.133 10.698-10.698c7.625 5.134 16.311 8.811 25.661 10.635v15.122h27.059v-15.123c9.349-1.824 18.036-5.501 25.661-10.635l10.697 10.697 19.133-19.133-10.697-10.697c5.134-7.625 8.811-16.311 10.635-25.66zm-84.081 25.979c-21.82 0-39.509-17.689-39.509-39.509s17.689-39.509 39.509-39.509 39.509 17.689 39.509 39.509c0 21.821-17.689 39.509-39.509 39.509z" fill="#ff6c52"/></g><g><path d="m398.363 364.449v-27.059h-15.123c-1.824-9.35-5.501-18.036-10.635-25.661l10.697-10.698-19.133-19.133-10.697 10.698c-7.625-5.134-16.311-8.811-25.661-10.635v-15.123h-13.883v44.581c.118-.001.235-.009.353-.009 21.82 0 39.509 17.689 39.509 39.509s-17.689 39.509-39.509 39.509c-.119 0-.235-.008-.353-.009v44.581h13.883v-15.123c9.349-1.824 18.036-5.501 25.661-10.635l10.697 10.697 19.133-19.133-10.697-10.698c5.134-7.625 8.811-16.311 10.635-25.66h15.123z" fill="#ff432e"/></g></svg>